<svg xmlns="http://www.w3.org/2000/svg" viewBox="0 0 100 100">
  <g fill="#EC1C24">
    <!-- Center top petal -->
    <path d="M50 15 C52 23 54 28 50 35 C46 28 48 23 50 15 Z" />
    <!-- Angle petals -->
    <path d="M50 35 C56 29 62 25 68 20 C64 27 59 31 50 35 Z" />
    <path d="M50 35 C61 33 69 31 77 28 C70 34 62 36 50 35 Z" />
    <path d="M50 35 C62 39 71 42 79 45 C70 44 62 42 50 35 Z" />
    <!-- Left side symmetry -->
    <path d="M50 35 C44 29 38 25 32 20 C36 27 41 31 50 35 Z" />
    <path d="M50 35 C39 33 31 31 23 28 C30 34 38 36 50 35 Z" />
    <path d="M50 35 C38 39 29 42 21 45 C30 44 38 42 50 35 Z" />
  </g>
  <text x="50" y="85" font-family="'Outfit', 'Inter', sans-serif" font-weight="700" font-size="9" fill="#1E293B" text-anchor="middle" letter-spacing="1.5">HUAWEI</text>
</svg>
